# xmcd
#
# Track frame offsets:
# 150
# 12913
# 25760
# 38329
# 52012
# 66781
# 79544
# 100277
# 114002
# 127184
# 138262
# 153170
#
# Disc length: 2254 seconds
#
#
# Revision: 0
# Processed by: cddbd v1.5.2PL0 Copyright (c) Steve Scherf et al.
# Submitted via: FreeRIP 2.945 
#
DISCID=8a08cc0c
DTITLE=Blue River Band - Blue Mountain Rain
DYEAR=2008
DGENRE=Bluegrass
TTITLE0=Blue Mountain Rain
TTITLE1=Lonely Road
TTITLE2=Girl From West Virginia
TTITLE3=Salt Creek
TTITLE4=Hot Bitter Tears
TTITLE5=Call Out His Name
TTITLE6=Otis Montgomery
TTITLE7=Cass County
TTITLE8=Man In The Middle
TTITLE9=Wonderful Tonight
TTITLE10=Lonely Moon
TTITLE11=Rider
EXTD=First Album
EXTT0=
EXTT1=
EXTT2=
EXTT3=
EXTT4=
EXTT5=
EXTT6=
EXTT7=
EXTT8=
EXTT9=
EXTT10=
EXTT11=
PLAYORDER=
